<?xml version="1.0" standalone="no"?><!DOCTYPE svg PUBLIC "-//W3C//DTD SVG 1.1//EN" "http://www.w3.org/Graphics/SVG/1.1/DTD/svg11.dtd"><svg t="1678273361038" class="icon" viewBox="0 0 1024 1024" version="1.1" xmlns="http://www.w3.org/2000/svg" p-id="2124" xmlns:xlink="http://www.w3.org/1999/xlink" width="200" height="200"><path d="M827.076923 29.538462H196.923077A88.615385 88.615385 0 0 0 108.307692 118.153846v748.307692A88.615385 88.615385 0 0 0 196.923077 955.076923h630.153846A88.615385 88.615385 0 0 0 915.692308 866.461538V118.153846A88.615385 88.615385 0 0 0 827.076923 29.538462z m-630.153846 19.692307h630.153846c38.045538 0 68.923077 30.877538 68.923077 68.923077v748.307692A68.923077 68.923077 0 0 1 827.076923 935.384615H196.923077A68.923077 68.923077 0 0 1 128 866.461538V118.153846c0-38.045538 30.877538-68.923077 68.923077-68.923077z" fill="#ea580c" p-id="2125"></path><path d="M364.307692 936.251077l-138.436923-0.630154 0.866462 15.044923A49.348923 49.348923 0 0 0 275.692308 994.776615h39.896615c26.899692 0 48.718769-21.819077 48.718769-48.718769v-9.846154z m-116.420923 19.140923l94.956308 0.433231-0.512 1.496615a29.026462 29.026462 0 0 1-26.742154 17.723077H275.692308a29.538462 29.538462 0 0 1-27.372308-18.392615l-0.433231-1.260308zM797.538462 936.251077l-138.436924-0.630154 0.866462 15.044923A49.348923 49.348923 0 0 0 708.923077 994.776615h39.896615c26.899692 0 48.718769-21.819077 48.71877-48.718769v-9.846154z m-116.420924 19.140923l94.956308 0.433231-0.512 1.496615a29.026462 29.026462 0 0 1-26.742154 17.723077H708.923077a29.538462 29.538462 0 0 1-27.372308-18.392615l-0.433231-1.260308zM905.846154 226.461538a9.846154 9.846154 0 0 1 2.244923 19.416616L905.846154 246.153846H118.153846a9.846154 9.846154 0 0 1-2.244923-19.416615L118.153846 226.461538h787.692308zM512 384a206.769231 206.769231 0 1 0 0 413.538462 206.769231 206.769231 0 0 0 0-413.538462z m0 19.692308a187.076923 187.076923 0 1 1 0 374.153846 187.076923 187.076923 0 0 1 0-374.153846z" fill="#ea580c" p-id="2126"></path><path d="M307.790769 593.526154c65.496615-72.428308 115.948308-76.957538 190.070154-37.809231l24.694154 13.824c79.241846 45.292308 118.311385 50.451692 180.302769 1.969231a9.846154 9.846154 0 0 1 12.130462 15.517538c-65.024 50.884923-110.198154 49.033846-185.107693 9.097846l-33.870769-18.944-7.207384-3.938461c-66.756923-35.446154-107.638154-31.468308-166.439385 33.516308a9.846154 9.846154 0 1 1-14.572308-13.193847zM216.615385 108.307692a29.538462 29.538462 0 1 0 0 59.076923 29.538462 29.538462 0 0 0 0-59.076923z m0 19.692308a9.846154 9.846154 0 1 1 0 19.692308 9.846154 9.846154 0 0 1 0-19.692308zM295.384615 108.307692a29.538462 29.538462 0 1 0 0 59.076923 29.538462 29.538462 0 0 0 0-59.076923z m0 19.692308a9.846154 9.846154 0 1 1 0 19.692308 9.846154 9.846154 0 0 1 0-19.692308zM807.384615 108.307692h-78.76923a29.538462 29.538462 0 1 0 0 59.076923h78.76923a29.538462 29.538462 0 1 0 0-59.076923z m-78.76923 19.692308h78.76923a9.846154 9.846154 0 1 1 0 19.692308h-78.76923a9.846154 9.846154 0 1 1 0-19.692308z" fill="#ea580c" p-id="2127"></path></svg>