<?xml version="1.0" standalone="no"?><!DOCTYPE svg PUBLIC "-//W3C//DTD SVG 1.1//EN" "http://www.w3.org/Graphics/SVG/1.1/DTD/svg11.dtd"><svg t="1678273729092" class="icon" viewBox="0 0 1024 1024" version="1.1" xmlns="http://www.w3.org/2000/svg" p-id="2353" xmlns:xlink="http://www.w3.org/1999/xlink" width="200" height="200"><path d="M170.666667 938.666667h682.666666a42.666667 42.666667 0 0 0 42.666667-42.666667V213.333333c0-70.570667-57.429333-128-128-128H256C185.429333 85.333333 128 142.762667 128 213.333333v682.666667a42.666667 42.666667 0 0 0 42.666667 42.666667zM768 167.424a42.666667 42.666667 0 1 1 0 85.333333 42.666667 42.666667 0 0 1 0-85.333333z m-128 0a42.666667 42.666667 0 1 1 0 85.333333 42.666667 42.666667 0 0 1 0-85.333333z m-128 132.992c141.184 0 256 114.816 256 256s-114.816 256-256 256-256-114.816-256-256 114.816-256 256-256z" p-id="2354" fill="#ea580c"></path><path d="M397.653333 523.306667c-17.706667 16.384-44.416 41.130667-44.416 88.192 0 47.104 26.709333 71.850667 44.416 88.234666 15.018667 13.866667 17.066667 16.981333 17.066667 25.6h85.333333c0-47.104-26.709333-71.850667-44.416-88.234666-15.018667-13.866667-17.066667-16.981333-17.066666-25.6s2.048-11.733333 17.066666-25.6c17.664-16.384 44.416-41.130667 44.416-88.234667 0-47.061333-26.709333-71.808-44.416-88.149333-14.976-13.866667-17.024-16.938667-17.024-25.514667h-85.333333c0 47.104 26.752 71.808 44.458667 88.149333 14.976 13.824 17.024 16.896 17.024 25.472-0.042667 8.661333-2.133333 11.776-17.109334 25.685334z m170.666667 0c-17.664 16.384-44.373333 41.130667-44.373333 88.192s26.709333 71.850667 44.373333 88.192c14.976 13.866667 17.024 16.981333 17.024 25.642666h85.333333c0-47.104-26.709333-71.850667-44.373333-88.192-14.976-13.866667-17.024-16.981333-17.024-25.642666s2.090667-11.733333 17.024-25.642667c17.664-16.384 44.373333-41.130667 44.373333-88.234667 0-47.061333-26.709333-71.765333-44.373333-88.106666-14.933333-13.824-17.024-16.938667-17.024-25.514667h-85.333333c0 47.061333 26.709333 71.808 44.416 88.149333 14.933333 13.824 16.981333 16.938667 16.981333 25.514667 0.042667 8.618667-2.048 11.733333-17.024 25.642667z" p-id="2355" fill="#ea580c"></path></svg>