<?xml version="1.0" standalone="no"?><!DOCTYPE svg PUBLIC "-//W3C//DTD SVG 1.1//EN" "http://www.w3.org/Graphics/SVG/1.1/DTD/svg11.dtd"><svg t="1678274618140" class="icon" viewBox="0 0 1024 1024" version="1.1" xmlns="http://www.w3.org/2000/svg" p-id="639" xmlns:xlink="http://www.w3.org/1999/xlink" width="200" height="200"><path d="M101.872 692.48l-0.48-1.136C16.928 498.4 78.24 266.544 258.048 142.832 461.76 2.704 740.336 54.384 880.32 258.272c1.088 1.584 2.016 3.216 2.784 4.912 69.328 102.736 95.984 233.632 62.528 363.12a31.968 31.968 0 1 1-61.888-16.032C936.8 404.976 813.52 195.52 608.432 142.4 403.36 89.312 194.096 212.704 141.056 418a382.672 382.672 0 0 0 19.072 248.08 386.72 386.72 0 0 0 35.296 63.392c108.16 157.536 312.832 209.056 480 129.744l-101.792-43.264a32 32 0 0 1 24.976-58.912l161.824 68.768a31.84 31.84 0 0 1 12.8 10.88c10 14.56 6.32 34.48-8.24 44.48-107.36 73.856-235.52 94.432-353.216 67.52a32.128 32.128 0 0 1-11.424-0.864c-138.768-35.92-245.44-133.216-298.48-255.36z" fill="#ffffff" p-id="640"></path><path d="M706.944 415.6l-56.752 79.712H820.96l-108.864 220.896h-56.448l86.976-175.392h-92.736v-45.088l-100.208 140.768h-55.008l156.96-220.896h55.296z m-390.096-98.304c48.96 0 76.32 26.208 76.32 66.24 0 34.848-21.888 53.568-49.248 70.272-37.44 21.024-45.792 29.664-53.28 41.76h103.104v44.928H228.72c0-51.264 8.64-74.592 44.064-96.192 27.072-16.416 63.936-28.224 63.936-57.888 0-16.416-10.944-25.056-26.784-25.056-19.872 0-38.592 12.96-49.824 24.48l-31.104-32.832c13.824-15.552 45.504-35.712 87.84-35.712z m208.8 2.016v130.176h27.36v44.352h-27.36v46.368H475.84v-46.368h-86.688v-44.352l102.528-130.176h33.984zM481.6 393.904l-42.912 55.584H481.6v-55.584z" fill="#ffffff" p-id="641"></path></svg>