<?xml version="1.0" standalone="no"?><!DOCTYPE svg PUBLIC "-//W3C//DTD SVG 1.1//EN" "http://www.w3.org/Graphics/SVG/1.1/DTD/svg11.dtd"><svg t="1678273164678" class="icon" viewBox="0 0 1024 1024" version="1.1" xmlns="http://www.w3.org/2000/svg" p-id="2541" id="mx_n_1678273164679" xmlns:xlink="http://www.w3.org/1999/xlink" width="200" height="200"><path d="M832.926897 0.22069H191.073103a26.562207 26.562207 0 0 0-26.65931 26.597517V960.617931a26.562207 26.562207 0 0 0 26.65931 26.597517h108.826483a26.924138 26.924138 0 0 0-1.774345 9.533793c0 6.867862 2.665931 13.294345 7.988966 18.61738a26.597517 26.597517 0 0 0 18.661517 7.529931c6.885517 0 13.991724-2.648276 18.65269-7.529931 5.331862-4.881655 7.997793-11.749517 7.997793-18.626207a26.924138 26.924138 0 0 0-1.774345-9.524966h324.475586a24.470069 24.470069 0 0 0-1.995034 9.533793c0 6.867862 2.665931 13.965241 7.997793 18.61738 4.881655 4.872828 11.767172 7.980138 18.65269 7.980138 3.10731 0 6.885517-1.112276 10.213517-2.215725 3.336828-1.553655 6.444138-3.769379 8.659862-5.764413 5.331862-4.881655 7.997793-11.749517 7.997793-18.626207 0-3.319172-0.662069-6.417655-1.995035-9.524966h108.826483a26.562207 26.562207 0 0 0 26.650483-26.597517V26.827034c0.441379-14.636138-11.546483-26.606345-26.209103-26.606344z m-26.871173 53.415724v346.88H217.944276V53.636414h588.111448zM217.944276 934.232276v-480.308966h588.111448v480.308966H217.944276z" fill="#ea580c" p-id="2542"></path><path d="M298.125241 507.127172a26.562207 26.562207 0 0 0-26.65931 26.597518v160.026482a26.562207 26.562207 0 0 0 26.65931 26.597518c14.653793 0 26.650483-11.970207 26.650483-26.597518V533.715862a26.703448 26.703448 0 0 0-26.65931-26.597517zM298.125241 347.10069a26.562207 26.562207 0 0 0 26.650483-26.606345V213.662897a26.562207 26.562207 0 0 0-26.65931-26.597518 26.703448 26.703448 0 0 0-26.641655 26.597518v106.831448a26.562207 26.562207 0 0 0 26.650482 26.597517z" fill="#ea580c" p-id="2543"></path></svg>